<svg width="50" height="50" viewBox="0 0 50 50" fill="none" xmlns="http://www.w3.org/2000/svg">
<path d="M44.4444 0H5.55556C2.48611 0 0 2.48611 0 5.55556V44.4444C0 47.5139 2.48611 50 5.55556 50H44.4444C47.5139 50 50 47.5139 50 44.4444V5.55556C50 2.48611 47.5139 0 44.4444 0ZM13.1611 38.8889C11.225 38.8889 9.65555 37.3194 9.65555 35.3833V22.9472C9.65833 21.0139 11.2278 19.4444 13.1611 19.4444C15.0972 19.4444 16.6667 21.0139 16.6667 22.95V35.3861C16.6667 37.3194 15.0972 38.8889 13.1611 38.8889ZM13.0389 15.8806C10.8972 15.8806 9.46667 14.4528 9.46667 12.5472C9.46667 10.6417 10.8944 9.21389 13.275 9.21389C15.4167 9.21389 16.8472 10.6417 16.8472 12.5472C16.8472 14.4528 15.4194 15.8806 13.0389 15.8806ZM38.275 38.8889C36.4028 38.8889 34.8833 37.3694 34.8833 35.4972V28.2611C34.8833 25.3222 33.075 25 32.3972 25C31.7194 25 29.4583 25.0972 29.4583 28.2611V35.4972C29.4583 37.3694 27.9389 38.8889 26.0667 38.8889H25.8417C23.9694 38.8889 22.45 37.3694 22.45 35.4972V22.95C22.45 21.0139 24.0194 19.4444 25.9556 19.4444C27.8917 19.4444 29.4611 21.0139 29.4611 22.95C29.4611 22.95 30.2444 19.4444 35.5667 19.4444C38.9528 19.4444 41.6667 22.1583 41.6667 28.2611V35.4972C41.6667 37.3694 40.1472 38.8889 38.275 38.8889Z" fill="white"/>
</svg>
