<svg width="220" height="64" viewBox="0 0 220 64" fill="none" xmlns="http://www.w3.org/2000/svg">
<path d="M32.376 4C27.576 4 24.7093 7.33333 23.876 9C39.876 5.5 41.376 11 41.376 9C41.376 7 38.376 4 32.376 4Z" fill="#F8835F" stroke="#F8835F"/>
<path d="M43.376 13.5C38.176 18.7 32.5426 16.6667 30.376 15C30.376 18 31.376 23 38.876 23C41.876 23 44.876 20.5 43.376 13.5Z" fill="#F8835F" stroke="#F8835F"/>
<path d="M38.376 58.5C38.876 52.6667 44.076 43.5 60.876 43.5C59.676 53.9 45.376 57 38.376 58.5Z" fill="#F8835F"/>
<path d="M7.37604 41.5C14.8491 42.1287 30.283 47.2686 32.376 59.5C14.9664 61.5 7.87604 47.9781 7.37604 41.5Z" fill="#F8835F"/>
<path d="M44.376 5.5C48.5427 8 56.576 14.9 55.376 22.5C66.176 8.9 52.5427 5.5 44.376 5.5Z" fill="#F8835F"/>
<path d="M25.876 12.5C24.876 15.8333 24.676 23.2 31.876 26C16.676 27.2 21.5427 17.5 25.876 12.5Z" fill="#F8835F"/>
<path d="M20.876 30.5C26.5427 31.6667 40.476 31.6 50.876 22C44.476 42 28.2094 36 20.876 30.5Z" fill="#F8835F"/>
<path d="M46.876 37.5C43.0792 39.0532 35.176 45.5 34.376 57.5C35.376 53 40.076 43.5 50.876 41.5C54.876 40.7593 64.176 38.5 67.376 30.5C68.7094 27.6667 69.476 21.6 61.876 20C61.5427 24 57.876 33 46.876 37.5Z" fill="#F8835F"/>
<path d="M17.876 33.5C9.87603 30.3 5.87603 23.1667 4.87603 20C-0.457303 23.6667 -5.92396 32.3 14.876 39.5C18.5427 40.0219 27.176 42.9526 32.376 48.5C31.5427 44.6667 27.476 36.3 17.876 33.5Z" fill="#F8835F"/>
<path d="M19.376 28C13.376 19.2 19.2094 10 22.876 6.5C18.5427 6.33333 9.67603 8.2 8.87602 17C8.70935 19.3333 10.576 24.8 19.376 28Z" fill="#F8835F" stroke="#F8835F"/>
<line x1="80" x2="80" y2="64" stroke="black" stroke-width="2"/>
<path d="M106.52 11.68C105.4 11.0667 104.253 10.56 103.08 10.16C101.933 9.76 100.853 9.56 99.84 9.56C98.5867 9.56 97.6 9.81333 96.88 10.32C96.16 10.8267 95.8 11.5867 95.8 12.6C95.8 13.2933 96.0667 13.92 96.6 14.48C97.16 15.0133 97.8667 15.4933 98.72 15.92C99.6 16.3467 100.507 16.7333 101.44 17.08C102.293 17.4 103.133 17.7867 103.96 18.24C104.813 18.6667 105.573 19.2133 106.24 19.88C106.907 20.52 107.44 21.3333 107.84 22.32C108.24 23.28 108.44 24.4667 108.44 25.88C108.44 27.3733 108.053 28.76 107.28 30.04C106.507 31.32 105.373 32.36 103.88 33.16C102.387 33.9333 100.547 34.32 98.36 34.32C97.24 34.32 96.0933 34.2133 94.92 34C93.7733 33.76 92.64 33.4133 91.52 32.96C90.4 32.48 89.32 31.88 88.28 31.16L90.84 26.64C91.5333 27.1467 92.28 27.6 93.08 28C93.9067 28.3733 94.7333 28.6667 95.56 28.88C96.3867 29.0933 97.1467 29.2 97.84 29.2C98.5333 29.2 99.2267 29.1067 99.92 28.92C100.64 28.7067 101.227 28.36 101.68 27.88C102.16 27.4 102.4 26.7333 102.4 25.88C102.4 25.2933 102.2 24.76 101.8 24.28C101.427 23.8 100.907 23.36 100.24 22.96C99.6 22.56 98.8933 22.2133 98.12 21.92C97.2133 21.5733 96.28 21.1733 95.32 20.72C94.36 20.2667 93.4533 19.72 92.6 19.08C91.7733 18.4133 91.0933 17.6 90.56 16.64C90.0533 15.6533 89.8 14.4533 89.8 13.04C89.8 11.3333 90.1733 9.85333 90.92 8.6C91.6933 7.34666 92.7733 6.36 94.16 5.64C95.5467 4.89333 97.1467 4.48 98.96 4.4C101.333 4.4 103.253 4.68 104.72 5.24C106.213 5.8 107.547 6.46667 108.72 7.24L106.52 11.68ZM118.84 34.84C117.267 34.84 115.947 34.36 114.88 33.4C113.814 32.4133 113.254 31.1467 113.2 29.6V16.52H118.8V27.52C118.854 28.2933 119.054 28.92 119.4 29.4C119.747 29.8533 120.334 30.08 121.16 30.08C121.987 30.08 122.694 29.8 123.28 29.24C123.894 28.68 124.36 27.92 124.68 26.96C125.027 25.9733 125.2 24.8667 125.2 23.64V16.52H130.8V34H125.72L125.28 30.8L125.36 31.16C124.96 31.88 124.454 32.52 123.84 33.08C123.227 33.64 122.494 34.0667 121.64 34.36C120.814 34.68 119.88 34.84 118.84 34.84ZM147.52 34.48C146.48 34.48 145.453 34.2933 144.44 33.92C143.453 33.52 142.626 32.96 141.96 32.24L142.12 30.6V42.4H136.56V16.12H141.36L142.16 19.52L141.72 18.32C142.626 17.5467 143.64 16.9067 144.76 16.4C145.88 15.8933 147.173 15.64 148.64 15.64C150.266 15.64 151.72 16.0267 153 16.8C154.28 17.5467 155.28 18.64 156 20.08C156.746 21.4933 157.12 23.2 157.12 25.2C157.12 27.1733 156.706 28.8533 155.88 30.24C155.053 31.6267 153.92 32.68 152.48 33.4C151.04 34.12 149.386 34.48 147.52 34.48ZM146.4 30.08C147.306 30.08 148.133 29.88 148.88 29.48C149.653 29.08 150.266 28.52 150.72 27.8C151.2 27.0533 151.44 26.2133 151.44 25.28C151.44 24.2933 151.226 23.44 150.8 22.72C150.4 21.9733 149.84 21.4 149.12 21C148.426 20.5733 147.653 20.36 146.8 20.36C146.053 20.36 145.386 20.4667 144.8 20.68C144.24 20.8667 143.733 21.16 143.28 21.56C142.853 21.9333 142.48 22.4133 142.16 23V27.28C142.373 27.84 142.68 28.3333 143.08 28.76C143.48 29.1867 143.96 29.52 144.52 29.76C145.106 29.9733 145.733 30.08 146.4 30.08ZM172.481 34.48C171.441 34.48 170.414 34.2933 169.401 33.92C168.414 33.52 167.587 32.96 166.921 32.24L167.081 30.6V42.4H161.521V16.12H166.321L167.121 19.52L166.681 18.32C167.587 17.5467 168.601 16.9067 169.721 16.4C170.841 15.8933 172.134 15.64 173.601 15.64C175.227 15.64 176.681 16.0267 177.961 16.8C179.241 17.5467 180.241 18.64 180.961 20.08C181.707 21.4933 182.081 23.2 182.081 25.2C182.081 27.1733 181.667 28.8533 180.841 30.24C180.014 31.6267 178.881 32.68 177.441 33.4C176.001 34.12 174.347 34.48 172.481 34.48ZM171.361 30.08C172.267 30.08 173.094 29.88 173.841 29.48C174.614 29.08 175.227 28.52 175.681 27.8C176.161 27.0533 176.401 26.2133 176.401 25.28C176.401 24.2933 176.187 23.44 175.761 22.72C175.361 21.9733 174.801 21.4 174.081 21C173.387 20.5733 172.614 20.36 171.761 20.36C171.014 20.36 170.347 20.4667 169.761 20.68C169.201 20.8667 168.694 21.16 168.241 21.56C167.814 21.9333 167.441 22.4133 167.121 23V27.28C167.334 27.84 167.641 28.3333 168.041 28.76C168.441 29.1867 168.921 29.52 169.481 29.76C170.067 29.9733 170.694 30.08 171.361 30.08ZM186.482 2.44H192.082V34H186.482V2.44ZM206.449 34.48C204.315 34.48 202.502 34.08 201.009 33.28C199.542 32.48 198.422 31.3733 197.649 29.96C196.875 28.5467 196.489 26.92 196.489 25.08C196.489 23.32 196.942 21.7333 197.849 20.32C198.755 18.9067 199.969 17.7867 201.489 16.96C203.009 16.1067 204.702 15.68 206.569 15.68C209.075 15.68 211.129 16.4133 212.729 17.88C214.355 19.32 215.409 21.4133 215.889 24.16L202.289 28.48L201.049 25.44L210.889 22.12L209.729 22.64C209.515 21.9467 209.129 21.3467 208.569 20.84C208.035 20.3067 207.222 20.04 206.129 20.04C205.302 20.04 204.569 20.24 203.929 20.64C203.315 21.0133 202.835 21.56 202.489 22.28C202.169 22.9733 202.009 23.8 202.009 24.76C202.009 25.8533 202.209 26.7733 202.609 27.52C203.009 28.24 203.555 28.7867 204.249 29.16C204.942 29.5333 205.715 29.72 206.569 29.72C207.182 29.72 207.769 29.6133 208.329 29.4C208.915 29.1867 209.489 28.9067 210.049 28.56L212.529 32.72C211.595 33.2533 210.582 33.68 209.489 34C208.422 34.32 207.409 34.48 206.449 34.48Z" fill="black"/>
<path d="M99.688 54.964C99.5667 55.0947 99.3753 55.23 99.114 55.37C98.8527 55.5007 98.5493 55.622 98.204 55.734C97.868 55.846 97.5227 55.9347 97.168 56C96.8133 56.0747 96.4773 56.112 96.16 56.112C95.32 56.112 94.564 55.9907 93.892 55.748C93.22 55.496 92.646 55.1507 92.17 54.712C91.694 54.264 91.33 53.7367 91.078 53.13C90.826 52.5233 90.7 51.8607 90.7 51.142C90.7 50.1993 90.84 49.3827 91.12 48.692C91.4093 47.992 91.7967 47.4133 92.282 46.956C92.7767 46.4893 93.3413 46.144 93.976 45.92C94.62 45.696 95.292 45.584 95.992 45.584C96.6547 45.584 97.2613 45.6587 97.812 45.808C98.3627 45.948 98.8293 46.1253 99.212 46.34L98.554 48.23C98.386 48.1367 98.162 48.0433 97.882 47.95C97.602 47.8567 97.3173 47.782 97.028 47.726C96.7387 47.6607 96.482 47.628 96.258 47.628C95.698 47.628 95.2033 47.698 94.774 47.838C94.3447 47.978 93.9807 48.188 93.682 48.468C93.3927 48.748 93.1733 49.098 93.024 49.518C92.8747 49.9287 92.8 50.4093 92.8 50.96C92.8 51.4453 92.884 51.884 93.052 52.276C93.22 52.6587 93.4533 52.9853 93.752 53.256C94.06 53.5267 94.4193 53.732 94.83 53.872C95.25 54.012 95.712 54.082 96.216 54.082C96.5053 54.082 96.7713 54.0633 97.014 54.026C97.2567 53.9793 97.462 53.9093 97.63 53.816V52.57H95.852V50.61H99.688V54.964ZM104.682 56.168C103.935 56.168 103.301 56.028 102.778 55.748C102.265 55.468 101.873 55.0807 101.602 54.586C101.331 54.0913 101.196 53.522 101.196 52.878C101.196 52.262 101.355 51.7067 101.672 51.212C101.989 50.7173 102.414 50.3253 102.946 50.036C103.478 49.7373 104.071 49.588 104.724 49.588C105.601 49.588 106.32 49.8447 106.88 50.358C107.449 50.862 107.818 51.5947 107.986 52.556L103.226 54.068L102.792 53.004L106.236 51.842L105.83 52.024C105.755 51.7813 105.62 51.5713 105.424 51.394C105.237 51.2073 104.953 51.114 104.57 51.114C104.281 51.114 104.024 51.184 103.8 51.324C103.585 51.4547 103.417 51.646 103.296 51.898C103.184 52.1407 103.128 52.43 103.128 52.766C103.128 53.1487 103.198 53.4707 103.338 53.732C103.478 53.984 103.669 54.1753 103.912 54.306C104.155 54.4367 104.425 54.502 104.724 54.502C104.939 54.502 105.144 54.4647 105.34 54.39C105.545 54.3153 105.746 54.2173 105.942 54.096L106.81 55.552C106.483 55.7387 106.129 55.888 105.746 56C105.373 56.112 105.018 56.168 104.682 56.168ZM111.188 49.882L111.342 50.974L111.314 50.876C111.529 50.4933 111.832 50.1853 112.224 49.952C112.616 49.7093 113.097 49.588 113.666 49.588C114.245 49.588 114.726 49.7607 115.108 50.106C115.5 50.442 115.701 50.8807 115.71 51.422V56H113.75V52.15C113.741 51.8793 113.666 51.6647 113.526 51.506C113.396 51.338 113.172 51.254 112.854 51.254C112.556 51.254 112.294 51.352 112.07 51.548C111.846 51.744 111.674 52.01 111.552 52.346C111.431 52.682 111.37 53.0693 111.37 53.508V56H109.41V49.882H111.188ZM118.297 47.194H120.257V49.854H121.741V51.38H120.257V56H118.297V51.38H117.345V49.854H118.297V47.194ZM123.233 44.954H125.193V56H123.233V44.954ZM130.221 56.168C129.474 56.168 128.84 56.028 128.317 55.748C127.804 55.468 127.412 55.0807 127.141 54.586C126.87 54.0913 126.735 53.522 126.735 52.878C126.735 52.262 126.894 51.7067 127.211 51.212C127.528 50.7173 127.953 50.3253 128.485 50.036C129.017 49.7373 129.61 49.588 130.263 49.588C131.14 49.588 131.859 49.8447 132.419 50.358C132.988 50.862 133.357 51.5947 133.525 52.556L128.765 54.068L128.331 53.004L131.775 51.842L131.369 52.024C131.294 51.7813 131.159 51.5713 130.963 51.394C130.776 51.2073 130.492 51.114 130.109 51.114C129.82 51.114 129.563 51.184 129.339 51.324C129.124 51.4547 128.956 51.646 128.835 51.898C128.723 52.1407 128.667 52.43 128.667 52.766C128.667 53.1487 128.737 53.4707 128.877 53.732C129.017 53.984 129.208 54.1753 129.451 54.306C129.694 54.4367 129.964 54.502 130.263 54.502C130.478 54.502 130.683 54.4647 130.879 54.39C131.084 54.3153 131.285 54.2173 131.481 54.096L132.349 55.552C132.022 55.7387 131.668 55.888 131.285 56C130.912 56.112 130.557 56.168 130.221 56.168ZM139.026 52.864C139.026 52.2387 139.171 51.6787 139.46 51.184C139.759 50.6893 140.174 50.302 140.706 50.022C141.238 49.7327 141.849 49.588 142.54 49.588C143.24 49.588 143.847 49.7327 144.36 50.022C144.873 50.302 145.265 50.6893 145.536 51.184C145.816 51.6787 145.956 52.2387 145.956 52.864C145.956 53.4893 145.816 54.054 145.536 54.558C145.265 55.0527 144.873 55.4447 144.36 55.734C143.847 56.0233 143.231 56.168 142.512 56.168C141.84 56.168 141.238 56.0373 140.706 55.776C140.183 55.5147 139.773 55.1367 139.474 54.642C139.175 54.1473 139.026 53.5547 139.026 52.864ZM141 52.878C141 53.1953 141.065 53.4847 141.196 53.746C141.327 53.998 141.504 54.1987 141.728 54.348C141.952 54.4973 142.204 54.572 142.484 54.572C142.792 54.572 143.058 54.4973 143.282 54.348C143.506 54.1987 143.679 53.998 143.8 53.746C143.921 53.4847 143.982 53.1953 143.982 52.878C143.982 52.5513 143.921 52.262 143.8 52.01C143.679 51.758 143.506 51.5573 143.282 51.408C143.058 51.2587 142.792 51.184 142.484 51.184C142.204 51.184 141.952 51.2587 141.728 51.408C141.504 51.5573 141.327 51.758 141.196 52.01C141.065 52.262 141 52.5513 141 52.878ZM149.278 49.882L149.432 50.974L149.404 50.876C149.619 50.4933 149.922 50.1853 150.314 49.952C150.706 49.7093 151.187 49.588 151.756 49.588C152.335 49.588 152.816 49.7607 153.198 50.106C153.59 50.442 153.791 50.8807 153.8 51.422V56H151.84V52.15C151.831 51.8793 151.756 51.6647 151.616 51.506C151.486 51.338 151.262 51.254 150.944 51.254C150.646 51.254 150.384 51.352 150.16 51.548C149.936 51.744 149.764 52.01 149.642 52.346C149.521 52.682 149.46 53.0693 149.46 53.508V56H147.5V49.882H149.278ZM166.189 48.188C165.797 47.9733 165.396 47.796 164.985 47.656C164.584 47.516 164.206 47.446 163.851 47.446C163.413 47.446 163.067 47.5347 162.815 47.712C162.563 47.8893 162.437 48.1553 162.437 48.51C162.437 48.7527 162.531 48.972 162.717 49.168C162.913 49.3547 163.161 49.5227 163.459 49.672C163.767 49.8213 164.085 49.9567 164.411 50.078C164.71 50.19 165.004 50.3253 165.293 50.484C165.592 50.6333 165.858 50.8247 166.091 51.058C166.325 51.282 166.511 51.5667 166.651 51.912C166.791 52.248 166.861 52.6633 166.861 53.158C166.861 53.6807 166.726 54.166 166.455 54.614C166.185 55.062 165.788 55.426 165.265 55.706C164.743 55.9767 164.099 56.112 163.333 56.112C162.941 56.112 162.54 56.0747 162.129 56C161.728 55.916 161.331 55.7947 160.939 55.636C160.547 55.468 160.169 55.258 159.805 55.006L160.701 53.424C160.944 53.6013 161.205 53.76 161.485 53.9C161.775 54.0307 162.064 54.1333 162.353 54.208C162.643 54.2827 162.909 54.32 163.151 54.32C163.394 54.32 163.637 54.2873 163.879 54.222C164.131 54.1473 164.337 54.026 164.495 53.858C164.663 53.69 164.747 53.4567 164.747 53.158C164.747 52.9527 164.677 52.766 164.537 52.598C164.407 52.43 164.225 52.276 163.991 52.136C163.767 51.996 163.52 51.8747 163.249 51.772C162.932 51.6507 162.605 51.5107 162.269 51.352C161.933 51.1933 161.616 51.002 161.317 50.778C161.028 50.5447 160.79 50.26 160.603 49.924C160.426 49.5787 160.337 49.1587 160.337 48.664C160.337 48.0667 160.468 47.5487 160.729 47.11C161 46.6713 161.378 46.326 161.863 46.074C162.349 45.8127 162.909 45.668 163.543 45.64C164.374 45.64 165.046 45.738 165.559 45.934C166.082 46.13 166.549 46.3633 166.959 46.634L166.189 48.188ZM168.528 56V44.954H170.488V56H168.528ZM172.042 51.842L174.814 56H172.532L170.754 52.962L172.042 51.842ZM169.9 54.306L169.704 52.444L173.4 49.728L174.59 50.778L169.9 54.306ZM176.17 49.882H178.13V56H176.17V49.882ZM176.128 47.712C176.128 47.4227 176.24 47.1847 176.464 46.998C176.697 46.8113 176.945 46.718 177.206 46.718C177.467 46.718 177.705 46.8113 177.92 46.998C178.144 47.1847 178.256 47.4227 178.256 47.712C178.256 48.0013 178.144 48.2393 177.92 48.426C177.705 48.6033 177.467 48.692 177.206 48.692C176.945 48.692 176.697 48.6033 176.464 48.426C176.24 48.2393 176.128 48.0013 176.128 47.712ZM181.927 49.882L182.081 50.974L182.053 50.876C182.267 50.4933 182.571 50.1853 182.963 49.952C183.355 49.7093 183.835 49.588 184.405 49.588C184.983 49.588 185.464 49.7607 185.847 50.106C186.239 50.442 186.439 50.8807 186.449 51.422V56H184.489V52.15C184.479 51.8793 184.405 51.6647 184.265 51.506C184.134 51.338 183.91 51.254 183.593 51.254C183.294 51.254 183.033 51.352 182.809 51.548C182.585 51.744 182.412 52.01 182.291 52.346C182.169 52.682 182.109 53.0693 182.109 53.508V56H180.149V49.882H181.927Z" fill="black"/>
</svg>
