<svg width="69" height="57" viewBox="0 0 69 57" fill="none" xmlns="http://www.w3.org/2000/svg">
<path d="M33 0.5C28.2 0.5 25.3333 3.83333 24.5 5.5C40.5 2 42 7.5 42 5.5C42 3.5 39 0.5 33 0.5Z" fill="#F8835F" stroke="#F8835F"/>
<path d="M44 10C38.8 15.2 33.1667 13.1667 31 11.5C31 14.5 32 19.5 39.5 19.5C42.5 19.5 45.5 17 44 10Z" fill="#F8835F" stroke="#F8835F"/>
<path d="M39 55C39.5 49.1667 44.7 40 61.5 40C60.3 50.4 46 53.5 39 55Z" fill="#F8835F"/>
<path d="M8 38C15.473 38.6287 30.9069 43.7686 33 56C15.5904 58 8.5 44.4781 8 38Z" fill="#F8835F"/>
<path d="M45 2C49.1667 4.5 57.2 11.4 56 19C66.8 5.4 53.1667 2 45 2Z" fill="#F8835F"/>
<path d="M26.5 9C25.5 12.3333 25.3 19.7 32.5 22.5C17.3 23.7 22.1667 14 26.5 9Z" fill="#F8835F"/>
<path d="M21.5 27C27.1667 28.1667 41.1 28.1 51.5 18.5C45.1 38.5 28.8333 32.5 21.5 27Z" fill="#F8835F"/>
<path d="M47.5 34C43.6667 35.6667 35.8 42 35 54C36 49.5 40.7 40 51.5 38C55.6667 37.6667 64.8 35 68 27C69.3333 24.1667 70.1 18.1 62.5 16.5C62.1667 20.5 58.7 29.6 47.5 34Z" fill="#F8835F"/>
<path d="M18.5 30C10.5 26.8 6.49999 19.6667 5.49999 16.5C0.16666 20.1667 -5.3 28.8 15.5 36C19.1667 36.5219 27.8 39.4526 33 45C32.1667 41.1667 28.1 32.8 18.5 30Z" fill="#F8835F"/>
<path d="M20 24.5C14 15.7 19.8333 6.5 23.5 3C19.1667 2.83333 10.3 4.7 9.49998 13.5C9.33332 15.8333 11.2 21.3 20 24.5Z" fill="#F8835F" stroke="#F8835F"/>
</svg>
